<?xml version="1.0" encoding="utf-8"?>
<!-- Generator: Adobe Illustrator 22.0.1, SVG Export Plug-In . SVG Version: 6.00 Build 0)  -->
<svg version="1.1" xmlns="http://www.w3.org/2000/svg" xmlns:xlink="http://www.w3.org/1999/xlink" x="0px" y="0px"
	 viewBox="0 0 1364.4 470.4" style="enable-background:new 0 0 1364.4 470.4;" xml:space="preserve">
<style type="text/css">
	.st0{fill:#BBDCEF;}
	.st1{fill:#C3003D;}
</style>
<g id="Layer_5">
	<path class="st0" d="M204,332.4l46.3-46.3l-92.6-92.6l-46.3,46.3c-25.6,25.6-25.6,67,0,92.6l0,0C137,358,178.4,358,204,332.4z"/>
	<path class="st0" d="M259.5,276.9l92.6-92.6l-46.8-46.8c-25.3-25.3-66.3-25.3-91.6,0L167,184.3L259.5,276.9z"/>
	<path class="st1" d="M407.7,332.4l46.3-46.3l-92.6-92.6l-92.6,92.6l46.3,46.3C340.6,358,382.1,358,407.7,332.4z"/>
	<path class="st1" d="M463.2,276.9l92.6-92.6L509.5,138c-25.6-25.6-67-25.6-92.6,0l-46.3,46.3L463.2,276.9z"/>
	<path class="st0" d="M611.3,332.4L611.3,332.4c25.6-25.6,25.6-67,0-92.6L565,193.6l-92.6,92.6l46.3,46.3
		C544.3,358,585.7,358,611.3,332.4z"/>
</g>
<g id="Layer_2">
	<path d="M821.2,193.2c5.6,5.9,8.4,14.2,8.4,24.8v44.7c0,2.3-0.7,4.2-2.2,5.7c-1.5,1.5-3.4,2.3-5.8,2.3c-2.3,0-4.2-0.8-5.7-2.3
		c-1.5-1.5-2.3-3.4-2.3-5.7V218c0-6.3-1.6-11.2-4.8-14.4c-3.2-3.3-7.4-4.9-12.7-4.9c-5.4,0-9.9,1.9-13.4,5.6
		c-3.5,3.7-5.2,8.5-5.2,14.4v44c0,2.3-0.7,4.2-2.2,5.7c-1.5,1.5-3.4,2.3-5.8,2.3c-2.3,0-4.2-0.8-5.7-2.3c-1.5-1.5-2.3-3.4-2.3-5.7
		V218c0-6.3-1.6-11.2-4.8-14.4c-3.2-3.3-7.4-4.9-12.7-4.9c-5.5,0-10,1.9-13.5,5.6c-3.5,3.7-5.2,8.5-5.2,14.4v44
		c0,2.3-0.7,4.2-2.2,5.7c-1.5,1.5-3.4,2.3-5.8,2.3c-2.3,0-4.2-0.8-5.7-2.3c-1.5-1.5-2.3-3.4-2.3-5.7v-69.5c0-2.4,0.8-4.3,2.3-5.8
		c1.5-1.5,3.4-2.2,5.7-2.2c2.3,0,4.2,0.7,5.6,2.1c1.5,1.4,2.2,3.3,2.3,5.5c2.7-2.7,5.9-4.8,9.7-6.3c3.7-1.5,7.8-2.3,12.2-2.3
		c5.3,0,10.1,1.1,14.3,3.2c4.2,2.1,7.7,5.2,10.4,9.1c3.1-3.8,7-6.9,11.7-9.1c4.7-2.2,9.9-3.3,15.6-3.3
		C808.3,184.3,815.6,187.2,821.2,193.2z"/>
	<path d="M865.3,266.7c-6.6-3.7-11.7-8.8-15.3-15.4c-3.6-6.6-5.5-14-5.5-22.3c0-8.4,1.8-15.9,5.5-22.5c3.6-6.6,8.7-11.7,15.3-15.4
		c6.6-3.7,14-5.5,22.3-5.5c8.2,0,15.6,1.8,22.1,5.5c6.5,3.7,11.6,8.8,15.3,15.4c3.7,6.6,5.5,14.1,5.5,22.5c0,8.3-1.8,15.8-5.5,22.3
		c-3.6,6.6-8.7,11.7-15.2,15.4c-6.5,3.7-13.9,5.5-22.3,5.5C879.3,272.3,871.8,270.4,865.3,266.7z M901.9,254.5
		c4.2-2.5,7.5-6,9.8-10.4c2.3-4.4,3.5-9.4,3.5-15.1c0-5.6-1.2-10.7-3.5-15.1c-2.3-4.5-5.6-8-9.8-10.5c-4.2-2.5-9-3.7-14.3-3.7
		c-5.3,0-10.1,1.2-14.3,3.7c-4.2,2.5-7.5,6-9.9,10.5c-2.4,4.5-3.6,9.5-3.6,15.1c0,5.6,1.2,10.6,3.6,15.1c2.4,4.4,5.7,7.9,9.9,10.4
		c4.2,2.5,9,3.7,14.3,3.7C892.9,258.2,897.7,257,901.9,254.5z"/>
	<path d="M1019.4,189c0.7,1.1,1.1,2.4,1.1,3.7c0,1-0.3,2-0.8,3L985.9,267c-1.6,3.5-4,5.3-7.3,5.3c-1.8,0-3.3-0.4-4.5-1.2
		c-1.2-0.8-2.2-2.2-3.2-4.1l-33.8-71.2c-0.4-0.8-0.6-1.8-0.6-2.9c0-2.9,1.5-5,4.5-6.5c1-0.5,2.1-0.8,3.3-0.8s2.5,0.3,3.7,1
		c1.2,0.7,2.1,1.7,2.7,2.9l27.7,59.7l27.4-59.7c0.6-1.3,1.6-2.3,2.8-2.9c1.2-0.7,2.5-1,3.9-1c1.4,0,2.6,0.3,3.7,0.8
		C1017.6,187.1,1018.6,187.9,1019.4,189z"/>
	<path d="M1105.8,232.5c-1.4,1.3-3.1,2-5.2,2h-59.3c1.1,7.3,4.5,13.2,9.9,17.6c5.5,4.5,12.2,6.7,20.1,6.7c3.1,0,6.4-0.6,9.8-1.7
		c3.4-1.1,6.2-2.5,8.4-4.2c1.5-1.1,3.2-1.7,5.2-1.7c2,0,3.5,0.5,4.7,1.6c1.9,1.6,2.8,3.3,2.8,5.3c0,1.9-0.8,3.4-2.5,4.7
		c-3.5,2.8-7.9,5.1-13.2,6.9c-5.3,1.8-10.3,2.7-15.1,2.7c-8.5,0-16.2-1.8-23-5.5c-6.8-3.7-12-8.8-15.8-15.4
		c-3.8-6.6-5.7-14-5.7-22.3c0-8.3,1.8-15.8,5.4-22.4c3.6-6.6,8.6-11.8,15-15.5c6.4-3.7,13.7-5.5,21.8-5.5c8,0,14.9,1.8,20.8,5.3
		c5.8,3.5,10.3,8.5,13.4,14.8c3.1,6.4,4.7,13.6,4.7,21.9C1107.8,229.6,1107.1,231.2,1105.8,232.5z M1050.4,205.3
		c-4.7,4.2-7.7,9.7-9,16.7h52c-0.9-7-3.5-12.5-7.8-16.7c-4.3-4.2-9.8-6.2-16.7-6.2C1061.3,199,1055.2,201.1,1050.4,205.3z"/>
	<path d="M1127.9,232.6c-1.3-1.5-1.9-3.3-1.9-5.6c0-2.3,0.6-4.2,1.9-5.7c1.3-1.5,2.9-2.3,4.8-2.3h29.4c1.9,0,3.5,0.8,4.7,2.3
		c1.2,1.5,1.8,3.4,1.8,5.7c0,2.3-0.6,4.2-1.8,5.6c-1.2,1.5-2.8,2.2-4.7,2.2h-29.4C1130.8,234.8,1129.2,234,1127.9,232.6z"/>
	<path d="M1270,151.9c1.5,1.5,2.2,3.4,2.2,5.8v71.2c0,8.1-1.9,15.5-5.7,22.1c-3.8,6.6-9,11.8-15.5,15.6c-6.5,3.8-13.8,5.7-21.8,5.7
		c-8,0-15.3-1.9-21.9-5.7c-6.6-3.8-11.8-9-15.5-15.6c-3.7-6.6-5.6-14-5.6-22.1c0-8.1,1.7-15.5,5.2-22.1c3.5-6.6,8.3-11.8,14.4-15.5
		c6.1-3.7,12.9-5.6,20.4-5.6c6,0,11.7,1.2,16.9,3.7c5.2,2.5,9.6,6,13.3,10.5v-42.2c0-2.4,0.8-4.3,2.3-5.8c1.5-1.5,3.4-2.2,5.7-2.2
		C1266.6,149.7,1268.5,150.4,1270,151.9z M1243.4,254.4c4.2-2.5,7.5-6.1,9.9-10.5c2.4-4.5,3.6-9.5,3.6-15c0-5.5-1.2-10.5-3.6-14.9
		c-2.4-4.4-5.7-7.9-9.9-10.5c-4.2-2.6-8.9-3.8-14.1-3.8c-5.2,0-9.9,1.3-14.1,3.8c-4.2,2.6-7.5,6-10,10.5c-2.4,4.4-3.7,9.4-3.7,14.9
		c0,5.5,1.2,10.5,3.7,15c2.4,4.5,5.8,8,10,10.5c4.2,2.6,8.9,3.8,14.1,3.8C1234.4,258.2,1239.1,257,1243.4,254.4z"/>
</g>
<g id="Layer_3">
	<path d="M821.2,193.2c5.6,5.9,8.4,14.2,8.4,24.8v44.7c0,2.3-0.7,4.2-2.2,5.7c-1.5,1.5-3.4,2.3-5.8,2.3c-2.3,0-4.2-0.8-5.7-2.3
		c-1.5-1.5-2.3-3.4-2.3-5.7V218c0-6.3-1.6-11.2-4.8-14.4c-3.2-3.3-7.4-4.9-12.7-4.9c-5.4,0-9.9,1.9-13.4,5.6
		c-3.5,3.7-5.2,8.5-5.2,14.4v44c0,2.3-0.7,4.2-2.2,5.7c-1.5,1.5-3.4,2.3-5.8,2.3c-2.3,0-4.2-0.8-5.7-2.3c-1.5-1.5-2.3-3.4-2.3-5.7
		V218c0-6.3-1.6-11.2-4.8-14.4c-3.2-3.3-7.4-4.9-12.7-4.9c-5.5,0-10,1.9-13.5,5.6c-3.5,3.7-5.2,8.5-5.2,14.4v44
		c0,2.3-0.7,4.2-2.2,5.7c-1.5,1.5-3.4,2.3-5.8,2.3c-2.3,0-4.2-0.8-5.7-2.3c-1.5-1.5-2.3-3.4-2.3-5.7v-69.5c0-2.4,0.8-4.3,2.3-5.8
		c1.5-1.5,3.4-2.2,5.7-2.2c2.3,0,4.2,0.7,5.6,2.1c1.5,1.4,2.2,3.3,2.3,5.5c2.7-2.7,5.9-4.8,9.7-6.3c3.7-1.5,7.8-2.3,12.2-2.3
		c5.3,0,10.1,1.1,14.3,3.2c4.2,2.1,7.7,5.2,10.4,9.1c3.1-3.8,7-6.9,11.7-9.1c4.7-2.2,9.9-3.3,15.6-3.3
		C808.3,184.3,815.6,187.2,821.2,193.2z"/>
	<path d="M865.3,266.7c-6.6-3.7-11.7-8.8-15.3-15.4c-3.6-6.6-5.5-14-5.5-22.3c0-8.4,1.8-15.9,5.5-22.5c3.6-6.6,8.7-11.7,15.3-15.4
		c6.6-3.7,14-5.5,22.3-5.5c8.2,0,15.6,1.8,22.1,5.5c6.5,3.7,11.6,8.8,15.3,15.4c3.7,6.6,5.5,14.1,5.5,22.5c0,8.3-1.8,15.8-5.5,22.3
		c-3.6,6.6-8.7,11.7-15.2,15.4c-6.5,3.7-13.9,5.5-22.3,5.5C879.3,272.3,871.8,270.4,865.3,266.7z M901.9,254.5
		c4.2-2.5,7.5-6,9.8-10.4c2.3-4.4,3.5-9.4,3.5-15.1c0-5.6-1.2-10.7-3.5-15.1c-2.3-4.5-5.6-8-9.8-10.5c-4.2-2.5-9-3.7-14.3-3.7
		c-5.3,0-10.1,1.2-14.3,3.7c-4.2,2.5-7.5,6-9.9,10.5c-2.4,4.5-3.6,9.5-3.6,15.1c0,5.6,1.2,10.6,3.6,15.1c2.4,4.4,5.7,7.9,9.9,10.4
		c4.2,2.5,9,3.7,14.3,3.7C892.9,258.2,897.7,257,901.9,254.5z"/>
	<path d="M1019.4,189c0.7,1.1,1.1,2.4,1.1,3.7c0,1-0.3,2-0.8,3L985.9,267c-1.6,3.5-4,5.3-7.3,5.3c-1.8,0-3.3-0.4-4.5-1.2
		c-1.2-0.8-2.2-2.2-3.2-4.1l-33.8-71.2c-0.4-0.8-0.6-1.8-0.6-2.9c0-2.9,1.5-5,4.5-6.5c1-0.5,2.1-0.8,3.3-0.8s2.5,0.3,3.7,1
		c1.2,0.7,2.1,1.7,2.7,2.9l27.7,59.7l27.4-59.7c0.6-1.3,1.6-2.3,2.8-2.9c1.2-0.7,2.5-1,3.9-1c1.4,0,2.6,0.3,3.7,0.8
		C1017.6,187.1,1018.6,187.9,1019.4,189z"/>
	<path d="M1105.8,232.5c-1.4,1.3-3.1,2-5.2,2h-59.3c1.1,7.3,4.5,13.2,9.9,17.6c5.5,4.5,12.2,6.7,20.1,6.7c3.1,0,6.4-0.6,9.8-1.7
		c3.4-1.1,6.2-2.5,8.4-4.2c1.5-1.1,3.2-1.7,5.2-1.7c2,0,3.5,0.5,4.7,1.6c1.9,1.6,2.8,3.3,2.8,5.3c0,1.9-0.8,3.4-2.5,4.7
		c-3.5,2.8-7.9,5.1-13.2,6.9c-5.3,1.8-10.3,2.7-15.1,2.7c-8.5,0-16.2-1.8-23-5.5c-6.8-3.7-12-8.8-15.8-15.4
		c-3.8-6.6-5.7-14-5.7-22.3c0-8.3,1.8-15.8,5.4-22.4c3.6-6.6,8.6-11.8,15-15.5c6.4-3.7,13.7-5.5,21.8-5.5c8,0,14.9,1.8,20.8,5.3
		c5.8,3.5,10.3,8.5,13.4,14.8c3.1,6.4,4.7,13.6,4.7,21.9C1107.8,229.6,1107.1,231.2,1105.8,232.5z M1050.4,205.3
		c-4.7,4.2-7.7,9.7-9,16.7h52c-0.9-7-3.5-12.5-7.8-16.7c-4.3-4.2-9.8-6.2-16.7-6.2C1061.3,199,1055.2,201.1,1050.4,205.3z"/>
	<path d="M1127.9,232.6c-1.3-1.5-1.9-3.3-1.9-5.6c0-2.3,0.6-4.2,1.9-5.7c1.3-1.5,2.9-2.3,4.8-2.3h29.4c1.9,0,3.5,0.8,4.7,2.3
		c1.2,1.5,1.8,3.4,1.8,5.7c0,2.3-0.6,4.2-1.8,5.6c-1.2,1.5-2.8,2.2-4.7,2.2h-29.4C1130.8,234.8,1129.2,234,1127.9,232.6z"/>
	<path d="M1270,151.9c1.5,1.5,2.2,3.4,2.2,5.8v71.2c0,8.1-1.9,15.5-5.7,22.1c-3.8,6.6-9,11.8-15.5,15.6c-6.5,3.8-13.8,5.7-21.8,5.7
		c-8,0-15.3-1.9-21.9-5.7c-6.6-3.8-11.8-9-15.5-15.6c-3.7-6.6-5.6-14-5.6-22.1c0-8.1,1.7-15.5,5.2-22.1c3.5-6.6,8.3-11.8,14.4-15.5
		c6.1-3.7,12.9-5.6,20.4-5.6c6,0,11.7,1.2,16.9,3.7c5.2,2.5,9.6,6,13.3,10.5v-42.2c0-2.4,0.8-4.3,2.3-5.8c1.5-1.5,3.4-2.2,5.7-2.2
		C1266.6,149.7,1268.5,150.4,1270,151.9z M1243.4,254.4c4.2-2.5,7.5-6.1,9.9-10.5c2.4-4.5,3.6-9.5,3.6-15c0-5.5-1.2-10.5-3.6-14.9
		c-2.4-4.4-5.7-7.9-9.9-10.5c-4.2-2.6-8.9-3.8-14.1-3.8c-5.2,0-9.9,1.3-14.1,3.8c-4.2,2.6-7.5,6-10,10.5c-2.4,4.4-3.7,9.4-3.7,14.9
		c0,5.5,1.2,10.5,3.7,15c2.4,4.5,5.8,8,10,10.5c4.2,2.6,8.9,3.8,14.1,3.8C1234.4,258.2,1239.1,257,1243.4,254.4z"/>
</g>
</svg>
