<?xml version="1.0" encoding="utf-8"?>
<!-- Generator: Adobe Illustrator 22.0.1, SVG Export Plug-In . SVG Version: 6.00 Build 0)  -->
<svg version="1.1" xmlns="http://www.w3.org/2000/svg" xmlns:xlink="http://www.w3.org/1999/xlink" x="0px" y="0px"
	 viewBox="0 0 763.9 715.4" style="enable-background:new 0 0 763.9 715.4;" xml:space="preserve">
<style type="text/css">
	.st0{fill:#BADBEF;}
	.st1{fill:#C2003C;}
	.st2{fill:#222221;}
</style>
<g id="Layer_5">
	<path class="st0" d="M223.9,350.7l46.2-46.2l-92.4-92.4l-46.2,46.2c-25.5,25.5-25.5,66.8,0,92.4l0,0
		C157.1,376.2,198.4,376.2,223.9,350.7z"/>
	<path class="st0" d="M279.3,295.3l92.4-92.4L325,156.3c-25.2-25.2-66.1-25.2-91.4,0L187,203L279.3,295.3z"/>
	<path class="st1" d="M427.1,350.7l46.2-46.2l-92.4-92.4l-92.4,92.4l46.2,46.2C360.3,376.2,401.6,376.2,427.1,350.7z"/>
	<path class="st1" d="M482.5,295.3l92.4-92.4l-46.2-46.2c-25.5-25.5-66.8-25.5-92.4,0L390.2,203L482.5,295.3z"/>
	<path class="st0" d="M630.3,350.7L630.3,350.7c25.5-25.5,25.5-66.8,0-92.4l-46.2-46.2l-92.4,92.4l46.2,46.2
		C563.4,376.2,604.8,376.2,630.3,350.7z"/>
</g>
<g id="Layer_2">
</g>
<g id="Layer_3">
	<path class="st2" d="M218,437.9c5.3,5.7,8,13.6,8,23.7v42.7c0,2.2-0.7,4-2.1,5.4c-1.4,1.4-3.2,2.2-5.5,2.2c-2.2,0-4-0.7-5.4-2.2
		c-1.4-1.4-2.2-3.3-2.2-5.4v-42.7c0-6.1-1.5-10.7-4.5-13.8c-3-3.1-7.1-4.7-12.2-4.7c-5.2,0-9.4,1.8-12.8,5.4c-3.3,3.6-5,8.2-5,13.7
		v42.1c0,2.2-0.7,4-2.1,5.4c-1.4,1.4-3.2,2.2-5.5,2.2c-2.2,0-4-0.7-5.4-2.2c-1.4-1.4-2.2-3.3-2.2-5.4v-42.7c0-6.1-1.5-10.7-4.5-13.8
		c-3-3.1-7.1-4.7-12.2-4.7c-5.3,0-9.6,1.8-12.9,5.4c-3.3,3.6-5,8.2-5,13.7v42.1c0,2.2-0.7,4-2.1,5.4c-1.4,1.4-3.2,2.2-5.5,2.2
		c-2.2,0-4-0.7-5.4-2.2c-1.4-1.4-2.2-3.3-2.2-5.4v-66.4c0-2.3,0.7-4.1,2.2-5.5c1.4-1.4,3.3-2.1,5.4-2.1c2.2,0,4,0.7,5.4,2
		c1.4,1.3,2.1,3.1,2.2,5.3c2.6-2.6,5.7-4.6,9.2-6c3.6-1.4,7.5-2.2,11.6-2.2c5.1,0,9.6,1,13.6,3.1c4,2,7.3,4.9,9.9,8.7
		c3-3.7,6.7-6.6,11.2-8.7c4.5-2.1,9.4-3.1,14.9-3.1C205.7,429.4,212.7,432.2,218,437.9z"/>
	<path class="st2" d="M260.1,508.2c-6.3-3.5-11.1-8.4-14.6-14.7c-3.5-6.3-5.2-13.4-5.2-21.3c0-8.1,1.7-15.2,5.2-21.5
		c3.5-6.3,8.4-11.2,14.6-14.7c6.3-3.5,13.4-5.3,21.3-5.3c7.9,0,14.9,1.8,21.1,5.3c6.2,3.5,11.1,8.4,14.6,14.7
		c3.5,6.3,5.3,13.4,5.3,21.5c0,8-1.7,15.1-5.2,21.3c-3.5,6.3-8.3,11.2-14.5,14.7c-6.2,3.5-13.3,5.3-21.3,5.3
		C273.5,513.4,266.4,511.7,260.1,508.2z M295.1,496.4c4-2.4,7.2-5.7,9.4-9.9c2.2-4.2,3.4-9,3.4-14.4c0-5.4-1.1-10.2-3.4-14.5
		c-2.2-4.3-5.4-7.6-9.4-10c-4-2.4-8.6-3.6-13.6-3.6s-9.6,1.2-13.6,3.6c-4,2.4-7.2,5.7-9.5,10c-2.3,4.3-3.4,9.1-3.4,14.5
		c0,5.4,1.1,10.2,3.4,14.4c2.3,4.2,5.4,7.5,9.5,9.9c4,2.4,8.6,3.6,13.6,3.6S291,498.8,295.1,496.4z"/>
	<path class="st2" d="M407.3,433.9c0.7,1.1,1.1,2.3,1.1,3.6c0,0.9-0.3,1.9-0.8,2.9l-32.3,68c-1.5,3.3-3.9,5-7,5
		c-1.7,0-3.1-0.4-4.3-1.1c-1.1-0.8-2.1-2.1-3-3.9l-32.3-68c-0.4-0.8-0.6-1.7-0.6-2.7c0-2.7,1.4-4.8,4.3-6.2c0.9-0.5,2-0.8,3.2-0.8
		c1.2,0,2.4,0.3,3.5,1c1.1,0.7,2,1.6,2.6,2.8l26.5,57.1l26.2-57.1c0.6-1.2,1.5-2.2,2.7-2.8c1.2-0.7,2.4-1,3.7-1
		c1.3,0,2.5,0.3,3.5,0.8C405.6,432,406.6,432.9,407.3,433.9z"/>
	<path class="st2" d="M489.8,475.5c-1.3,1.2-2.9,1.9-4.9,1.9h-56.7c1.1,7,4.3,12.6,9.5,16.9c5.2,4.3,11.6,6.4,19.2,6.4
		c3,0,6.1-0.5,9.3-1.6c3.2-1.1,5.9-2.4,8-4c1.4-1.1,3-1.6,4.9-1.6c1.9,0,3.4,0.5,4.5,1.5c1.8,1.5,2.7,3.2,2.7,5.1
		c0,1.8-0.8,3.3-2.4,4.5c-3.4,2.7-7.6,4.9-12.6,6.6c-5,1.7-9.8,2.5-14.4,2.5c-8.2,0-15.5-1.8-21.9-5.3c-6.5-3.5-11.5-8.4-15.1-14.7
		c-3.6-6.3-5.4-13.4-5.4-21.3c0-8,1.7-15.1,5.1-21.4c3.4-6.3,8.2-11.2,14.3-14.8c6.1-3.5,13.1-5.3,20.8-5.3c7.7,0,14.3,1.7,19.8,5.1
		c5.6,3.4,9.8,8.1,12.8,14.2c3,6.1,4.5,13,4.5,20.9C491.8,472.7,491.1,474.2,489.8,475.5z M437,449.5c-4.5,4-7.4,9.3-8.6,16h49.7
		c-0.9-6.7-3.4-12-7.5-16c-4.1-4-9.4-6-16-6C447.4,443.5,441.5,445.5,437,449.5z"/>
	<path class="st2" d="M510.9,475.5c-1.2-1.4-1.8-3.2-1.8-5.4c0-2.2,0.6-4,1.8-5.4c1.2-1.4,2.7-2.2,4.6-2.2h28.1
		c1.8,0,3.4,0.7,4.5,2.2c1.2,1.4,1.8,3.3,1.8,5.4c0,2.2-0.6,4-1.8,5.4c-1.2,1.4-2.7,2.1-4.5,2.1h-28.1
		C513.7,477.6,512.2,476.9,510.9,475.5z"/>
	<path class="st2" d="M646.7,398.5c1.4,1.4,2.1,3.2,2.1,5.5v68c0,7.8-1.8,14.8-5.4,21.1c-3.6,6.3-8.6,11.3-14.8,14.9
		c-6.2,3.6-13.2,5.4-20.8,5.4c-7.7,0-14.6-1.8-21-5.4c-6.3-3.6-11.3-8.6-14.8-14.9c-3.6-6.3-5.4-13.3-5.4-21.1s1.7-14.8,5-21.1
		c3.3-6.3,7.9-11.3,13.7-14.8c5.8-3.6,12.3-5.4,19.5-5.4c5.8,0,11.1,1.2,16.1,3.6c5,2.4,9.2,5.7,12.7,10V404c0-2.3,0.7-4.1,2.2-5.5
		c1.4-1.4,3.3-2.1,5.4-2.1C643.5,396.4,645.3,397.1,646.7,398.5z M621.3,496.4c4-2.4,7.2-5.8,9.5-10.1c2.3-4.3,3.4-9,3.4-14.3
		c0-5.3-1.1-10-3.4-14.2c-2.3-4.2-5.4-7.6-9.5-10c-4-2.4-8.5-3.7-13.5-3.7c-5,0-9.5,1.2-13.5,3.7c-4,2.4-7.2,5.8-9.5,10
		c-2.3,4.2-3.5,9-3.5,14.2c0,5.3,1.2,10,3.5,14.3c2.3,4.3,5.5,7.6,9.5,10.1c4,2.4,8.5,3.7,13.5,3.7
		C612.7,500,617.2,498.8,621.3,496.4z"/>
	<path class="st2" d="M218,437.9c5.3,5.7,8,13.6,8,23.7v42.7c0,2.2-0.7,4-2.1,5.4c-1.4,1.4-3.2,2.2-5.5,2.2c-2.2,0-4-0.7-5.4-2.2
		c-1.4-1.4-2.2-3.3-2.2-5.4v-42.7c0-6.1-1.5-10.7-4.5-13.8c-3-3.1-7.1-4.7-12.2-4.7c-5.2,0-9.4,1.8-12.8,5.4c-3.3,3.6-5,8.2-5,13.7
		v42.1c0,2.2-0.7,4-2.1,5.4c-1.4,1.4-3.2,2.2-5.5,2.2c-2.2,0-4-0.7-5.4-2.2c-1.4-1.4-2.2-3.3-2.2-5.4v-42.7c0-6.1-1.5-10.7-4.5-13.8
		c-3-3.1-7.1-4.7-12.2-4.7c-5.3,0-9.6,1.8-12.9,5.4c-3.3,3.6-5,8.2-5,13.7v42.1c0,2.2-0.7,4-2.1,5.4c-1.4,1.4-3.2,2.2-5.5,2.2
		c-2.2,0-4-0.7-5.4-2.2c-1.4-1.4-2.2-3.3-2.2-5.4v-66.4c0-2.3,0.7-4.1,2.2-5.5c1.4-1.4,3.3-2.1,5.4-2.1c2.2,0,4,0.7,5.4,2
		c1.4,1.3,2.1,3.1,2.2,5.3c2.6-2.6,5.7-4.6,9.2-6c3.6-1.4,7.5-2.2,11.6-2.2c5.1,0,9.6,1,13.6,3.1c4,2,7.3,4.9,9.9,8.7
		c3-3.7,6.7-6.6,11.2-8.7c4.5-2.1,9.4-3.1,14.9-3.1C205.7,429.4,212.7,432.2,218,437.9z"/>
	<path class="st2" d="M260.1,508.2c-6.3-3.5-11.1-8.4-14.6-14.7c-3.5-6.3-5.2-13.4-5.2-21.3c0-8.1,1.7-15.2,5.2-21.5
		c3.5-6.3,8.4-11.2,14.6-14.7c6.3-3.5,13.4-5.3,21.3-5.3c7.9,0,14.9,1.8,21.1,5.3c6.2,3.5,11.1,8.4,14.6,14.7
		c3.5,6.3,5.3,13.4,5.3,21.5c0,8-1.7,15.1-5.2,21.3c-3.5,6.3-8.3,11.2-14.5,14.7c-6.2,3.5-13.3,5.3-21.3,5.3
		C273.5,513.4,266.4,511.7,260.1,508.2z M295.1,496.4c4-2.4,7.2-5.7,9.4-9.9c2.2-4.2,3.4-9,3.4-14.4c0-5.4-1.1-10.2-3.4-14.5
		c-2.2-4.3-5.4-7.6-9.4-10c-4-2.4-8.6-3.6-13.6-3.6s-9.6,1.2-13.6,3.6c-4,2.4-7.2,5.7-9.5,10c-2.3,4.3-3.4,9.1-3.4,14.5
		c0,5.4,1.1,10.2,3.4,14.4c2.3,4.2,5.4,7.5,9.5,9.9c4,2.4,8.6,3.6,13.6,3.6S291,498.8,295.1,496.4z"/>
	<path class="st2" d="M407.3,433.9c0.7,1.1,1.1,2.3,1.1,3.6c0,0.9-0.3,1.9-0.8,2.9l-32.3,68c-1.5,3.3-3.9,5-7,5
		c-1.7,0-3.1-0.4-4.3-1.1c-1.1-0.8-2.1-2.1-3-3.9l-32.3-68c-0.4-0.8-0.6-1.7-0.6-2.7c0-2.7,1.4-4.8,4.3-6.2c0.9-0.5,2-0.8,3.2-0.8
		c1.2,0,2.4,0.3,3.5,1c1.1,0.7,2,1.6,2.6,2.8l26.5,57.1l26.2-57.1c0.6-1.2,1.5-2.2,2.7-2.8c1.2-0.7,2.4-1,3.7-1
		c1.3,0,2.5,0.3,3.5,0.8C405.6,432,406.6,432.9,407.3,433.9z"/>
	<path class="st2" d="M489.8,475.5c-1.3,1.2-2.9,1.9-4.9,1.9h-56.7c1.1,7,4.3,12.6,9.5,16.9c5.2,4.3,11.6,6.4,19.2,6.4
		c3,0,6.1-0.5,9.3-1.6c3.2-1.1,5.9-2.4,8-4c1.4-1.1,3-1.6,4.9-1.6c1.9,0,3.4,0.5,4.5,1.5c1.8,1.5,2.7,3.2,2.7,5.1
		c0,1.8-0.8,3.3-2.4,4.5c-3.4,2.7-7.6,4.9-12.6,6.6c-5,1.7-9.8,2.5-14.4,2.5c-8.2,0-15.5-1.8-21.9-5.3c-6.5-3.5-11.5-8.4-15.1-14.7
		c-3.6-6.3-5.4-13.4-5.4-21.3c0-8,1.7-15.1,5.1-21.4c3.4-6.3,8.2-11.2,14.3-14.8c6.1-3.5,13.1-5.3,20.8-5.3c7.7,0,14.3,1.7,19.8,5.1
		c5.6,3.4,9.8,8.1,12.8,14.2c3,6.1,4.5,13,4.5,20.9C491.8,472.7,491.1,474.2,489.8,475.5z M437,449.5c-4.5,4-7.4,9.3-8.6,16h49.7
		c-0.9-6.7-3.4-12-7.5-16c-4.1-4-9.4-6-16-6C447.4,443.5,441.5,445.5,437,449.5z"/>
	<path class="st2" d="M510.9,475.5c-1.2-1.4-1.8-3.2-1.8-5.4c0-2.2,0.6-4,1.8-5.4c1.2-1.4,2.7-2.2,4.6-2.2h28.1
		c1.8,0,3.4,0.7,4.5,2.2c1.2,1.4,1.8,3.3,1.8,5.4c0,2.2-0.6,4-1.8,5.4c-1.2,1.4-2.7,2.1-4.5,2.1h-28.1
		C513.7,477.6,512.2,476.9,510.9,475.5z"/>
	<path class="st2" d="M646.7,398.5c1.4,1.4,2.1,3.2,2.1,5.5v68c0,7.8-1.8,14.8-5.4,21.1c-3.6,6.3-8.6,11.3-14.8,14.9
		c-6.2,3.6-13.2,5.4-20.8,5.4c-7.7,0-14.6-1.8-21-5.4c-6.3-3.6-11.3-8.6-14.8-14.9c-3.6-6.3-5.4-13.3-5.4-21.1s1.7-14.8,5-21.1
		c3.3-6.3,7.9-11.3,13.7-14.8c5.8-3.6,12.3-5.4,19.5-5.4c5.8,0,11.1,1.2,16.1,3.6c5,2.4,9.2,5.7,12.7,10V404c0-2.3,0.7-4.1,2.2-5.5
		c1.4-1.4,3.3-2.1,5.4-2.1C643.5,396.4,645.3,397.1,646.7,398.5z M621.3,496.4c4-2.4,7.2-5.8,9.5-10.1c2.3-4.3,3.4-9,3.4-14.3
		c0-5.3-1.1-10-3.4-14.2c-2.3-4.2-5.4-7.6-9.5-10c-4-2.4-8.5-3.7-13.5-3.7c-5,0-9.5,1.2-13.5,3.7c-4,2.4-7.2,5.8-9.5,10
		c-2.3,4.2-3.5,9-3.5,14.2c0,5.3,1.2,10,3.5,14.3c2.3,4.3,5.5,7.6,9.5,10.1c4,2.4,8.5,3.7,13.5,3.7
		C612.7,500,617.2,498.8,621.3,496.4z"/>
	<g>
		<path class="st1" d="M113.2,541.3c-0.6-0.6-0.9-1.3-0.9-2.2c0-0.9,0.3-1.6,0.9-2.2c0.6-0.6,1.4-0.8,2.3-0.8s1.7,0.3,2.3,0.8
			c0.6,0.6,0.9,1.3,0.9,2.2c0,0.9-0.3,1.7-0.9,2.2c-0.6,0.6-1.4,0.9-2.3,0.9S113.8,541.9,113.2,541.3z M113.4,576.9v-28.6
			c0-0.5,0.3-0.8,0.8-0.8h2.7c0.5,0,0.8,0.3,0.8,0.8v28.6c0,0.5-0.3,0.8-0.8,0.8h-2.7C113.7,577.7,113.4,577.4,113.4,576.9z"/>
		<path class="st1" d="M143.9,573.3c1.3-0.8,2.3-1.9,3-3.2c0.1-0.2,0.2-0.3,0.4-0.4c0.2-0.1,0.4-0.1,0.6,0.1l1.7,1
			c0.5,0.3,0.6,0.6,0.4,1c-1,2-2.4,3.6-4.3,4.7c-1.9,1.2-4.2,1.8-6.8,1.8c-2.8,0-5.1-0.7-7-2c-1.9-1.3-3.3-3.1-4.1-5.5
			c-0.8-2-1.1-4.7-1.1-8.2c0-1.7,0-3.1,0.1-4.1c0.1-1,0.2-2,0.4-2.8c0.7-2.6,2-4.6,4.1-6.2c2-1.5,4.5-2.3,7.4-2.3
			c3.5,0,6.2,0.9,8.1,2.7c2,1.8,3.2,4.3,3.8,7.6c0.2,1.3,0.4,3.3,0.4,5.9c0,0.5-0.3,0.8-0.8,0.8h-19c-0.2,0-0.3,0.1-0.3,0.3
			c0,2,0.1,3.4,0.4,4.3c0.4,1.8,1.4,3.2,2.8,4.3c1.4,1.1,3.2,1.6,5.3,1.6C141,574.5,142.6,574.1,143.9,573.3z M133.8,552.3
			c-1.3,1-2.1,2.4-2.5,4.1c-0.2,0.8-0.4,2.1-0.5,4c0,0.2,0.1,0.3,0.3,0.3h15.3c0.2,0,0.3-0.1,0.3-0.3c-0.1-1.7-0.2-3-0.4-3.8
			c-0.4-1.8-1.3-3.2-2.6-4.3c-1.3-1.1-3-1.6-5-1.6C136.7,550.8,135.1,551.3,133.8,552.3z"/>
		<path class="st1" d="M178.6,536.1h2.7c0.5,0,0.8,0.3,0.8,0.8v40.1c0,0.5-0.3,0.8-0.8,0.8h-2.7c-0.5,0-0.8-0.3-0.8-0.8v-2.3
			c0-0.1,0-0.2-0.1-0.2c-0.1,0-0.2,0-0.2,0.1c-0.9,1.2-2,2-3.2,2.7c-1.3,0.6-2.7,1-4.3,1c-2.8,0-5.1-0.7-7-2.1
			c-1.9-1.4-3.2-3.4-3.9-5.8c-0.6-1.8-0.8-4.3-0.8-7.6c0-3.3,0.2-5.7,0.7-7.4c0.7-2.5,2-4.5,3.9-6c1.9-1.4,4.3-2.2,7.1-2.2
			c1.5,0,3,0.3,4.3,0.9c1.3,0.6,2.4,1.5,3.3,2.6c0.1,0.1,0.2,0.2,0.2,0.1c0.1,0,0.1-0.1,0.1-0.2v-13.7
			C177.8,536.3,178.1,536.1,178.6,536.1z M177.5,567.1c0.2-1.1,0.2-2.6,0.2-4.5c0-1.9-0.1-3.4-0.2-4.5c-0.2-1.1-0.4-2.1-0.8-2.9
			c-0.5-1.3-1.3-2.4-2.3-3.2c-1.1-0.8-2.4-1.2-3.9-1.2c-1.6,0-3,0.4-4.1,1.2c-1.2,0.8-2,1.8-2.5,3.2c-0.5,0.9-0.8,1.9-1,2.9
			c-0.2,1.1-0.3,2.6-0.3,4.6c0,1.9,0.1,3.3,0.2,4.4c0.2,1.1,0.4,2,0.8,2.8c0.5,1.4,1.3,2.6,2.5,3.4c1.2,0.8,2.6,1.2,4.3,1.2
			c1.6,0,2.9-0.4,4-1.2c1.1-0.8,1.9-1.9,2.4-3.3C177,569.1,177.3,568.2,177.5,567.1z"/>
		<path class="st1" d="M207.9,573.3c1.3-0.8,2.3-1.9,3-3.2c0.1-0.2,0.2-0.3,0.4-0.4c0.2-0.1,0.4-0.1,0.6,0.1l1.7,1
			c0.5,0.3,0.6,0.6,0.4,1c-1,2-2.4,3.6-4.3,4.7c-1.9,1.2-4.2,1.8-6.8,1.8c-2.8,0-5.1-0.7-7-2c-1.9-1.3-3.3-3.1-4.1-5.5
			c-0.8-2-1.1-4.7-1.1-8.2c0-1.7,0-3.1,0.1-4.1c0.1-1,0.2-2,0.4-2.8c0.7-2.6,2-4.6,4.1-6.2c2-1.5,4.5-2.3,7.4-2.3
			c3.5,0,6.2,0.9,8.1,2.7c2,1.8,3.2,4.3,3.8,7.6c0.2,1.3,0.4,3.3,0.4,5.9c0,0.5-0.3,0.8-0.8,0.8h-19c-0.2,0-0.3,0.1-0.3,0.3
			c0,2,0.1,3.4,0.4,4.3c0.4,1.8,1.4,3.2,2.8,4.3c1.4,1.1,3.2,1.6,5.3,1.6C205.1,574.5,206.6,574.1,207.9,573.3z M197.8,552.3
			c-1.3,1-2.1,2.4-2.5,4.1c-0.2,0.8-0.4,2.1-0.5,4c0,0.2,0.1,0.3,0.3,0.3h15.3c0.2,0,0.3-0.1,0.3-0.3c-0.1-1.7-0.2-3-0.4-3.8
			c-0.4-1.8-1.3-3.2-2.6-4.3c-1.3-1.1-3-1.6-5-1.6C200.7,550.8,199.1,551.3,197.8,552.3z"/>
		<path class="st1" d="M238.7,548c0.4,0.2,0.5,0.5,0.4,1l-0.6,2.6c-0.1,0.5-0.4,0.6-1,0.5c-0.8-0.2-1.7-0.3-2.9-0.3
			c-2.1,0.1-3.8,0.8-5.1,2.3c-1.3,1.4-2,3.3-2,5.5v17.4c0,0.5-0.3,0.8-0.8,0.8h-2.7c-0.5,0-0.8-0.3-0.8-0.8v-28.6
			c0-0.5,0.3-0.8,0.8-0.8h2.7c0.5,0,0.8,0.3,0.8,0.8v3.3c0,0.2,0,0.2,0.1,0.3c0.1,0,0.1,0,0.2-0.1c0.8-1.4,1.9-2.5,3.2-3.3
			c1.3-0.8,2.8-1.2,4.4-1.2C236.8,547.3,237.9,547.5,238.7,548z"/>
		<path class="st1" d="M261,573.3c1.3-0.8,2.3-1.9,3-3.2c0.1-0.2,0.2-0.3,0.4-0.4c0.2-0.1,0.4-0.1,0.6,0.1l1.7,1
			c0.5,0.3,0.6,0.6,0.4,1c-1,2-2.4,3.6-4.3,4.7c-1.9,1.2-4.2,1.8-6.8,1.8c-2.8,0-5.1-0.7-7-2c-1.9-1.3-3.3-3.1-4.1-5.5
			c-0.8-2-1.1-4.7-1.1-8.2c0-1.7,0-3.1,0.1-4.1c0.1-1,0.2-2,0.4-2.8c0.7-2.6,2-4.6,4.1-6.2c2-1.5,4.5-2.3,7.4-2.3
			c3.5,0,6.2,0.9,8.1,2.7c2,1.8,3.2,4.3,3.8,7.6c0.2,1.3,0.4,3.3,0.4,5.9c0,0.5-0.3,0.8-0.8,0.8h-19c-0.2,0-0.3,0.1-0.3,0.3
			c0,2,0.1,3.4,0.4,4.3c0.4,1.8,1.4,3.2,2.8,4.3c1.4,1.1,3.2,1.6,5.3,1.6C258.2,574.5,259.7,574.1,261,573.3z M250.9,552.3
			c-1.3,1-2.1,2.4-2.5,4.1c-0.2,0.8-0.4,2.1-0.5,4c0,0.2,0.1,0.3,0.3,0.3h15.3c0.2,0,0.3-0.1,0.3-0.3c-0.1-1.7-0.2-3-0.4-3.8
			c-0.4-1.8-1.3-3.2-2.6-4.3c-1.3-1.1-3-1.6-5-1.6C253.8,550.8,252.2,551.3,250.9,552.3z"/>
		<path class="st1" d="M292.8,573.3c1.3-0.8,2.3-1.9,3-3.2c0.1-0.2,0.2-0.3,0.4-0.4c0.2-0.1,0.4-0.1,0.6,0.1l1.7,1
			c0.5,0.3,0.6,0.6,0.4,1c-1,2-2.4,3.6-4.3,4.7c-1.9,1.2-4.2,1.8-6.8,1.8c-2.8,0-5.1-0.7-7-2s-3.3-3.1-4.1-5.5
			c-0.8-2-1.1-4.7-1.1-8.2c0-1.7,0-3.1,0.1-4.1c0.1-1,0.2-2,0.4-2.8c0.7-2.6,2-4.6,4.1-6.2c2-1.5,4.5-2.3,7.4-2.3
			c3.5,0,6.2,0.9,8.1,2.7c2,1.8,3.2,4.3,3.8,7.6c0.2,1.3,0.4,3.3,0.4,5.9c0,0.5-0.3,0.8-0.8,0.8h-19c-0.2,0-0.3,0.1-0.3,0.3
			c0,2,0.1,3.4,0.4,4.3c0.4,1.8,1.4,3.2,2.8,4.3c1.4,1.1,3.2,1.6,5.3,1.6C289.9,574.5,291.5,574.1,292.8,573.3z M282.7,552.3
			c-1.3,1-2.1,2.4-2.5,4.1c-0.2,0.8-0.4,2.1-0.5,4c0,0.2,0.1,0.3,0.3,0.3h15.3c0.2,0,0.3-0.1,0.3-0.3c-0.1-1.7-0.2-3-0.4-3.8
			c-0.4-1.8-1.3-3.2-2.6-4.3c-1.3-1.1-3-1.6-5-1.6C285.6,550.8,284,551.3,282.7,552.3z"/>
		<path class="st1" d="M328.2,550c1.9,1.9,2.8,4.4,2.8,7.5v19.5c0,0.5-0.3,0.8-0.8,0.8h-2.7c-0.5,0-0.8-0.3-0.8-0.8v-18.6
			c0-2.2-0.7-4-2-5.4c-1.3-1.4-3-2.1-5.1-2.1c-2,0-3.7,0.6-5,1.7c-1.3,1.2-2.1,2.7-2.3,4.5v19.8c0,0.5-0.3,0.8-0.8,0.8H309
			c-0.5,0-0.8-0.3-0.8-0.8v-28.6c0-0.5,0.3-0.8,0.8-0.8h2.7c0.5,0,0.8,0.3,0.8,0.8v2.2c0,0.1,0,0.2,0.1,0.3c0.1,0.1,0.1,0,0.2-0.1
			c1.7-2.4,4.4-3.6,8-3.6C323.8,547.2,326.3,548.1,328.2,550z"/>
		<path class="st1" d="M352.4,541.3c-0.6-0.6-0.9-1.3-0.9-2.2c0-0.9,0.3-1.6,0.9-2.2c0.6-0.6,1.4-0.8,2.3-0.8s1.7,0.3,2.3,0.8
			c0.6,0.6,0.9,1.3,0.9,2.2c0,0.9-0.3,1.7-0.9,2.2c-0.6,0.6-1.4,0.9-2.3,0.9S353,541.9,352.4,541.3z M352.6,576.9v-28.6
			c0-0.5,0.3-0.8,0.8-0.8h2.7c0.5,0,0.8,0.3,0.8,0.8v28.6c0,0.5-0.3,0.8-0.8,0.8h-2.7C352.9,577.7,352.6,577.4,352.6,576.9z"/>
		<path class="st1" d="M386.8,550c1.9,1.9,2.8,4.4,2.8,7.5v19.5c0,0.5-0.3,0.8-0.8,0.8h-2.7c-0.5,0-0.8-0.3-0.8-0.8v-18.6
			c0-2.2-0.7-4-2-5.4c-1.3-1.4-3-2.1-5.1-2.1c-2,0-3.7,0.6-5,1.7c-1.3,1.2-2.1,2.7-2.3,4.5v19.8c0,0.5-0.3,0.8-0.8,0.8h-2.7
			c-0.5,0-0.8-0.3-0.8-0.8v-28.6c0-0.5,0.3-0.8,0.8-0.8h2.7c0.5,0,0.8,0.3,0.8,0.8v2.2c0,0.1,0,0.2,0.1,0.3c0.1,0.1,0.1,0,0.2-0.1
			c1.7-2.4,4.4-3.6,8-3.6C382.4,547.2,384.9,548.1,386.8,550z"/>
		<path class="st1" d="M434.6,562.6c0,3.3-0.3,5.8-0.8,7.6c-0.7,2.5-2,4.4-3.9,5.8c-1.9,1.4-4.2,2.1-7,2.1c-1.6,0-3-0.3-4.3-1
			c-1.3-0.6-2.4-1.5-3.2-2.7c-0.1-0.1-0.2-0.1-0.2-0.1c-0.1,0-0.1,0.1-0.1,0.2v2.3c0,0.5-0.3,0.8-0.8,0.8h-2.7
			c-0.5,0-0.8-0.3-0.8-0.8v-40.1c0-0.5,0.3-0.8,0.8-0.8h2.7c0.5,0,0.8,0.3,0.8,0.8v13.7c0,0.1,0,0.2,0.1,0.2c0.1,0,0.2,0,0.2-0.1
			c0.9-1.2,2-2,3.3-2.6c1.3-0.6,2.7-0.9,4.3-0.9c2.8,0,5.2,0.7,7.1,2.2c1.9,1.4,3.2,3.4,3.9,6C434.3,556.9,434.6,559.4,434.6,562.6z
			 M430.1,567c0.2-1.1,0.2-2.5,0.2-4.4c0-1.9-0.1-3.5-0.3-4.6c-0.2-1.1-0.6-2.1-1-2.9c-0.5-1.3-1.3-2.4-2.5-3.2
			c-1.2-0.8-2.5-1.2-4.1-1.2c-1.5,0-2.8,0.4-3.9,1.2c-1.1,0.8-1.9,1.9-2.3,3.2c-0.4,0.8-0.7,1.8-0.8,2.9c-0.2,1.1-0.2,2.6-0.2,4.5
			c0,1.9,0.1,3.4,0.2,4.5c0.2,1.1,0.4,2,0.8,2.8c0.5,1.4,1.3,2.5,2.4,3.3s2.4,1.2,4,1.2c1.7,0,3.1-0.4,4.3-1.2
			c1.2-0.8,2.1-2,2.5-3.4C429.7,569,429.9,568.1,430.1,567z"/>
		<path class="st1" d="M459.3,573.3c1.3-0.8,2.3-1.9,3-3.2c0.1-0.2,0.2-0.3,0.4-0.4c0.2-0.1,0.4-0.1,0.6,0.1l1.7,1
			c0.5,0.3,0.6,0.6,0.4,1c-1,2-2.4,3.6-4.3,4.7c-1.9,1.2-4.2,1.8-6.8,1.8c-2.8,0-5.1-0.7-7-2s-3.3-3.1-4.1-5.5
			c-0.8-2-1.1-4.7-1.1-8.2c0-1.7,0-3.1,0.1-4.1c0.1-1,0.2-2,0.4-2.8c0.7-2.6,2-4.6,4.1-6.2c2-1.5,4.5-2.3,7.4-2.3
			c3.5,0,6.2,0.9,8.1,2.7c2,1.8,3.2,4.3,3.8,7.6c0.2,1.3,0.4,3.3,0.4,5.9c0,0.5-0.3,0.8-0.8,0.8h-19c-0.2,0-0.3,0.1-0.3,0.3
			c0,2,0.1,3.4,0.4,4.3c0.4,1.8,1.4,3.2,2.8,4.3c1.4,1.1,3.2,1.6,5.3,1.6C456.5,574.5,458,574.1,459.3,573.3z M449.2,552.3
			c-1.3,1-2.1,2.4-2.5,4.1c-0.2,0.8-0.4,2.1-0.5,4c0,0.2,0.1,0.3,0.3,0.3h15.3c0.2,0,0.3-0.1,0.3-0.3c-0.1-1.7-0.2-3-0.4-3.8
			c-0.4-1.8-1.3-3.2-2.6-4.3c-1.3-1.1-3-1.6-5-1.6C452.1,550.8,450.5,551.3,449.2,552.3z"/>
		<path class="st1" d="M479.5,577l-8.3-28.6c0-0.1-0.1-0.2-0.1-0.3c0-0.2,0.1-0.3,0.2-0.4c0.1-0.1,0.3-0.2,0.5-0.2h2.8
			c0.4,0,0.7,0.2,0.8,0.7l6.2,23.2c0,0.1,0.1,0.2,0.2,0.2c0.1,0,0.1-0.1,0.2-0.2l6.4-23.2c0.1-0.4,0.4-0.7,0.8-0.7h2.6
			c0.4,0,0.7,0.2,0.8,0.7l6.5,23.2c0,0.1,0.1,0.2,0.2,0.2c0.1,0,0.1-0.1,0.2-0.2l6.4-23.2c0.1-0.4,0.4-0.7,0.9-0.7l2.7,0.1
			c0.3,0,0.5,0.1,0.6,0.2c0.1,0.2,0.1,0.4,0.1,0.7l-8.4,28.5c-0.1,0.4-0.4,0.7-0.8,0.7h-2.9c-0.4,0-0.7-0.2-0.8-0.7l-6.4-22
			c0-0.1-0.1-0.2-0.2-0.2c-0.1,0-0.1,0.1-0.2,0.2l-6.2,22c-0.1,0.4-0.4,0.7-0.8,0.7h-3C479.9,577.7,479.6,577.5,479.5,577z"/>
		<path class="st1" d="M532.2,573.3c1.3-0.8,2.3-1.9,3-3.2c0.1-0.2,0.2-0.3,0.4-0.4c0.2-0.1,0.4-0.1,0.6,0.1l1.7,1
			c0.5,0.3,0.6,0.6,0.4,1c-1,2-2.4,3.6-4.3,4.7c-1.9,1.2-4.2,1.8-6.8,1.8c-2.8,0-5.1-0.7-7-2c-1.9-1.3-3.3-3.1-4.1-5.5
			c-0.8-2-1.1-4.7-1.1-8.2c0-1.7,0-3.1,0.1-4.1c0.1-1,0.2-2,0.4-2.8c0.7-2.6,2-4.6,4.1-6.2c2-1.5,4.5-2.3,7.4-2.3
			c3.5,0,6.2,0.9,8.1,2.7c2,1.8,3.2,4.3,3.8,7.6c0.2,1.3,0.4,3.3,0.4,5.9c0,0.5-0.3,0.8-0.8,0.8h-19c-0.2,0-0.3,0.1-0.3,0.3
			c0,2,0.1,3.4,0.4,4.3c0.4,1.8,1.4,3.2,2.8,4.3c1.4,1.1,3.2,1.6,5.3,1.6C529.3,574.5,530.9,574.1,532.2,573.3z M522.1,552.3
			c-1.3,1-2.1,2.4-2.5,4.1c-0.2,0.8-0.4,2.1-0.5,4c0,0.2,0.1,0.3,0.3,0.3h15.3c0.2,0,0.3-0.1,0.3-0.3c-0.1-1.7-0.2-3-0.4-3.8
			c-0.4-1.8-1.3-3.2-2.6-4.3c-1.3-1.1-3-1.6-5-1.6C525,550.8,523.3,551.3,522.1,552.3z"/>
		<path class="st1" d="M566.9,547.6h2.7c0.5,0,0.8,0.3,0.8,0.8v28.3c0,4.4-1.3,7.7-3.9,9.8c-2.6,2.1-6.1,3.1-10.5,3.1
			c-0.8,0-1.5,0-1.9-0.1c-0.5,0-0.8-0.3-0.8-0.8l0.1-2.4c0-0.6,0.3-0.8,0.8-0.7c4.2,0.2,7.2-0.4,9.1-1.8c1.9-1.4,2.8-3.8,2.8-7.1
			v-2.1c0-0.1,0-0.2-0.1-0.2c-0.1,0-0.2,0-0.2,0.1c-1.8,2.3-4.4,3.5-7.7,3.5c-2.6,0-4.9-0.7-6.9-2.1c-2-1.4-3.3-3.4-4-5.9
			c-0.5-1.6-0.7-4-0.7-7.3c0-1.7,0-3.2,0.1-4.4c0.1-1.2,0.3-2.3,0.6-3.2c0.7-2.4,2-4.3,3.9-5.7c1.9-1.4,4.1-2.2,6.7-2.2
			c3.5,0,6.1,1.1,8,3.4c0.1,0.1,0.2,0.2,0.2,0.1c0.1,0,0.1-0.1,0.1-0.2v-2C566.1,547.9,566.4,547.6,566.9,547.6z M566.1,566.4
			c0-0.9,0.1-2.1,0.1-3.8c0-2,0-3.4-0.1-4.1c0-0.7-0.1-1.3-0.3-1.9c-0.3-1.7-1.1-3-2.3-4.1c-1.2-1.1-2.8-1.6-4.7-1.6
			c-1.9,0-3.4,0.5-4.7,1.6c-1.3,1.1-2.2,2.5-2.7,4.2c-0.4,1.3-0.6,3.3-0.6,5.9c0,2.9,0.2,4.9,0.6,6c0.4,1.7,1.3,3,2.6,4.1
			c1.3,1.1,2.9,1.6,4.8,1.6c1.9,0,3.5-0.5,4.8-1.6c1.2-1.1,2-2.4,2.3-4.1C566,568,566,567.3,566.1,566.4z"/>
		<path class="st1" d="M579.7,541.3c-0.6-0.6-0.9-1.3-0.9-2.2c0-0.9,0.3-1.6,0.9-2.2c0.6-0.6,1.4-0.8,2.3-0.8c1,0,1.7,0.3,2.3,0.8
			c0.6,0.6,0.9,1.3,0.9,2.2c0,0.9-0.3,1.7-0.9,2.2c-0.6,0.6-1.4,0.9-2.3,0.9C581,542.2,580.2,541.9,579.7,541.3z M579.9,576.9v-28.6
			c0-0.5,0.3-0.8,0.8-0.8h2.7c0.5,0,0.8,0.3,0.8,0.8v28.6c0,0.5-0.3,0.8-0.8,0.8h-2.7C580.1,577.7,579.9,577.4,579.9,576.9z"/>
		<path class="st1" d="M614,550c1.9,1.9,2.8,4.4,2.8,7.5v19.5c0,0.5-0.3,0.8-0.8,0.8h-2.7c-0.5,0-0.8-0.3-0.8-0.8v-18.6
			c0-2.2-0.7-4-2-5.4c-1.3-1.4-3-2.1-5.1-2.1c-2,0-3.7,0.6-5,1.7c-1.3,1.2-2.1,2.7-2.3,4.5v19.8c0,0.5-0.3,0.8-0.8,0.8h-2.7
			c-0.5,0-0.8-0.3-0.8-0.8v-28.6c0-0.5,0.3-0.8,0.8-0.8h2.7c0.5,0,0.8,0.3,0.8,0.8v2.2c0,0.1,0,0.2,0.1,0.3c0.1,0.1,0.1,0,0.2-0.1
			c1.7-2.4,4.4-3.6,8-3.6C609.6,547.2,612.1,548.1,614,550z"/>
		<path class="st1" d="M645.4,547.6h2.7c0.5,0,0.8,0.3,0.8,0.8v28.3c0,4.4-1.3,7.7-3.9,9.8c-2.6,2.1-6.1,3.1-10.5,3.1
			c-0.8,0-1.5,0-1.9-0.1c-0.5,0-0.8-0.3-0.8-0.8l0.1-2.4c0-0.6,0.3-0.8,0.8-0.7c4.2,0.2,7.2-0.4,9.1-1.8c1.9-1.4,2.8-3.8,2.8-7.1
			v-2.1c0-0.1,0-0.2-0.1-0.2c-0.1,0-0.2,0-0.2,0.1c-1.8,2.3-4.4,3.5-7.7,3.5c-2.6,0-4.9-0.7-6.9-2.1c-2-1.4-3.3-3.4-4-5.9
			c-0.5-1.6-0.7-4-0.7-7.3c0-1.7,0-3.2,0.1-4.4c0.1-1.2,0.3-2.3,0.6-3.2c0.7-2.4,2-4.3,3.9-5.7c1.9-1.4,4.1-2.2,6.7-2.2
			c3.5,0,6.1,1.1,8,3.4c0.1,0.1,0.2,0.2,0.2,0.1c0.1,0,0.1-0.1,0.1-0.2v-2C644.6,547.9,644.9,547.6,645.4,547.6z M644.6,566.4
			c0-0.9,0.1-2.1,0.1-3.8c0-2,0-3.4-0.1-4.1c0-0.7-0.1-1.3-0.3-1.9c-0.3-1.7-1.1-3-2.3-4.1c-1.2-1.1-2.8-1.6-4.7-1.6
			c-1.9,0-3.4,0.5-4.7,1.6c-1.3,1.1-2.2,2.5-2.7,4.2c-0.4,1.3-0.6,3.3-0.6,5.9c0,2.9,0.2,4.9,0.6,6c0.4,1.7,1.3,3,2.6,4.1
			c1.3,1.1,2.9,1.6,4.8,1.6c1.9,0,3.5-0.5,4.8-1.6c1.2-1.1,2-2.4,2.3-4.1C644.4,568,644.5,567.3,644.6,566.4z"/>
	</g>
</g>
</svg>
