<?xml version="1.0" encoding="utf-8"?>
<!-- Generator: Adobe Illustrator 22.0.1, SVG Export Plug-In . SVG Version: 6.00 Build 0)  -->
<svg version="1.1" id="Layer_5" xmlns="http://www.w3.org/2000/svg" xmlns:xlink="http://www.w3.org/1999/xlink" x="0px" y="0px"
	 viewBox="0 0 763.9 500.7" style="enable-background:new 0 0 763.9 500.7;" xml:space="preserve">
<style type="text/css">
	.st0{fill:#9C9B9B;}
	.st1{fill:#4B4B4A;}
</style>
<path class="st0" d="M223.9,350.7l46.2-46.2l-92.4-92.4l-46.2,46.2c-25.5,25.5-25.5,66.8,0,92.4l0,0
	C157.1,376.2,198.4,376.2,223.9,350.7z"/>
<path class="st0" d="M279.3,295.3l92.4-92.4L325,156.3c-25.2-25.2-66.1-25.2-91.4,0L187,203L279.3,295.3z"/>
<path class="st1" d="M427.1,350.7l46.2-46.2l-92.4-92.4l-92.4,92.4l46.2,46.2C360.3,376.2,401.6,376.2,427.1,350.7z"/>
<path class="st1" d="M482.5,295.3l92.4-92.4l-46.2-46.2c-25.5-25.5-66.8-25.5-92.4,0L390.2,203L482.5,295.3z"/>
<path class="st0" d="M630.3,350.7L630.3,350.7c25.5-25.5,25.5-66.8,0-92.4l-46.2-46.2l-92.4,92.4l46.2,46.2
	C563.4,376.2,604.8,376.2,630.3,350.7z"/>
</svg>
